<?xml version="1.0" standalone="no"?><!-- Generator: Gravit.io --><svg xmlns="http://www.w3.org/2000/svg" xmlns:xlink="http://www.w3.org/1999/xlink" style="isolation:isolate" viewBox="0 0 130 45" width="130px" height="45px"><defs><clipPath id="_clipPath_RgmlglakNy0XdOCpeniQE8niQJp7zBYu"><rect width="130" height="45"/></clipPath></defs><g clip-path="url(#_clipPath_RgmlglakNy0XdOCpeniQE8niQJp7zBYu)"><clipPath id="_clipPath_WpqOrKsBAofriZuiJh3upJZlY7xsDy9B"><rect x="0" y="9" width="100.465" height="27" transform="matrix(1,0,0,1,0,0)" fill="rgb(255,255,255)"/></clipPath><g clip-path="url(#_clipPath_WpqOrKsBAofriZuiJh3upJZlY7xsDy9B)"><g><clipPath id="_clipPath_gfPxpkReENCxNGU7dB5KQxeMyNsF6l7y"><path d=" M 0 9 L 100.465 9 L 100.465 36 L 0 36 L 0 9 Z " fill="rgb(255,255,255)"/></clipPath><g clip-path="url(#_clipPath_gfPxpkReENCxNGU7dB5KQxeMyNsF6l7y)"><g><g><path d=" M 55.102 31.252 L 57.349 31.252 L 57.363 26.745 L 60.07 26.745 L 60.07 24.666 L 57.349 24.666 L 57.349 13.441 L 55.2 16.776 L 55.2 24.834 L 49.967 24.834 Q 49.416 24.834 49.367 24.569 Q 49.367 24.429 49.535 24.248 L 56.337 13.441 L 54.028 13.441 L 47.581 23.78 Q 47.072 24.645 47.072 25.155 Q 47.072 25.894 47.609 26.32 Q 48.147 26.745 49.067 26.745 L 55.102 26.745 L 55.102 31.252 L 55.102 31.252 Z  M 61.549 31.252 L 63.698 31.252 L 63.712 25.741 Q 63.712 23.92 64.2 23.034 Q 64.744 21.785 65.819 21.345 Q 66.893 20.913 68.47 20.913 L 68.47 18.897 Q 66.844 18.897 65.693 19.406 Q 64.549 19.908 63.614 21.171 L 63.614 19.127 L 61.549 19.127 L 61.549 31.252 L 61.549 31.252 Z  M 81.46 26.103 L 79.709 25.594 Q 79.416 26.878 78.753 27.764 Q 77.491 29.543 75.44 29.543 Q 74.316 29.543 73.27 28.957 Q 72.216 28.378 71.56 27.338 Q 70.905 26.306 70.905 25.008 Q 70.905 23.822 71.47 22.81 Q 72.007 21.806 72.949 21.234 Q 73.891 20.662 74.979 20.662 Q 75.914 20.662 76.674 21.024 Q 77.442 21.387 77.902 22.071 L 72.091 26.006 L 72.97 27.541 L 80.651 22.469 Q 80.1 21.422 79.249 20.599 Q 78.405 19.776 77.33 19.301 Q 76.263 18.834 75.091 18.834 Q 73.367 18.834 71.916 19.671 Q 70.472 20.508 69.642 21.959 Q 68.812 23.41 68.812 25.155 Q 68.812 26.529 69.356 27.701 Q 69.907 28.88 70.849 29.731 Q 71.798 30.59 72.984 31.036 Q 74.156 31.51 75.37 31.51 Q 76.528 31.51 77.616 31.071 Q 78.698 30.624 79.563 29.766 Q 80.226 29.138 80.651 28.301 Q 81.077 27.464 81.46 26.103 L 81.46 26.103 Z  M 92.979 26.006 L 92.979 31.252 L 95.1 31.252 L 95.1 25.692 Q 95.1 23.948 94.326 22.357 Q 93.551 20.773 92.128 19.81 Q 90.719 18.834 88.947 18.834 Q 87.258 18.834 85.821 19.699 Q 84.398 20.557 83.56 22.043 Q 82.723 23.529 82.723 25.266 Q 82.723 26.983 83.54 28.413 Q 84.349 29.85 85.751 30.68 Q 87.16 31.51 88.849 31.51 Q 89.742 31.51 90.419 31.294 Q 91.095 31.078 92.107 30.499 L 92.107 28.176 Q 90.733 29.327 88.995 29.327 Q 87.16 29.327 86.023 28.029 Q 84.977 26.906 84.977 25.231 Q 84.977 24.143 85.465 23.159 Q 85.96 22.169 86.874 21.569 Q 87.774 20.962 88.947 20.962 Q 90.244 20.962 91.165 21.687 Q 92.079 22.399 92.533 23.557 Q 92.979 24.722 92.979 26.006 L 92.979 26.006 Z  M 99.516 13.441 L 99.516 31.252 L 97.333 31.252 L 97.333 13.441 L 99.516 13.441 L 99.516 13.441 Z  M 34.891 18.82 L 34.891 26.292 C 34.891 27.569 34.402 28.287 33.202 28.287 C 32.002 28.287 31.409 27.569 31.409 26.292 L 31.409 18.82 L 27.984 18.82 L 27.984 27.108 C 27.984 30.122 30.237 31.559 32.693 31.559 C 34.228 31.559 35.553 30.945 36.502 29.459 C 37.653 30.945 38.979 31.559 40.514 31.559 C 42.97 31.559 45.223 30.122 45.223 27.108 L 45.223 18.82 L 41.798 18.82 L 41.798 26.292 C 41.798 27.569 41.205 28.287 40.005 28.287 C 38.805 28.287 38.316 27.569 38.316 26.292 L 38.316 18.82 L 34.891 18.82 L 34.891 18.82 Z  M 4.737 31.252 L 4.737 23.78 C 4.737 22.503 5.407 21.785 6.607 21.785 C 7.807 21.785 8.47 22.503 8.47 23.78 L 8.47 31.252 L 11.749 31.252 L 11.749 22.657 C 11.749 19.943 9.649 18.513 6.607 18.513 C 3.565 18.513 1.465 19.943 1.465 22.657 L 1.465 31.252 L 4.737 31.252 Z  M 19.828 21.785 C 21.642 21.785 22.842 22.964 22.842 25.036 C 22.842 27.108 21.642 28.287 19.828 28.287 C 18.014 28.287 16.807 27.108 16.807 25.036 C 16.807 22.964 18.014 21.785 19.828 21.785 L 19.828 21.785 Z  M 19.828 18.513 C 15.963 18.513 13.535 21.478 13.535 25.036 C 13.535 28.594 15.963 31.559 19.828 31.559 C 23.686 31.559 26.121 28.594 26.121 25.036 C 26.121 21.478 23.686 18.513 19.828 18.513 L 19.828 18.513 Z " fill="currentColor"/></g></g></g></g></g></g></svg>